<svg id="Layer_1" data-name="Layer 1" xmlns="http://www.w3.org/2000/svg" viewBox="0 0 245.74 43.82"><defs><style>.cls-1{fill:#fff;}</style></defs><path class="cls-1" d="M57.46,40.36V62.27H51.1V59.06a7.84,7.84,0,0,1-6.88,3.68c-6.66,0-10.67-5.13-10.67-11.53,0-6.15,3.71-11.32,10.55-11.32a8.78,8.78,0,0,1,7,3.46v-3ZM45.55,57.57c3.12,0,5.72-2,5.72-6s-2.43-6.53-5.89-6.53-5.47,2.81-5.47,6.19S42,57.57,45.55,57.57Z" transform="translate(-33.55 -25.77)"/><path class="cls-1" d="M76.17,62.27H69.85L60.66,40.36h7L73,55.13l5.39-14.77h7Z" transform="translate(-33.55 -25.77)"/><path class="cls-1" d="M108.84,58.42a13.74,13.74,0,0,1-10.21,4.32c-8.11,0-12.55-5.08-12.55-11.32,0-6.45,5-11.53,12.08-11.53,6.07,0,11.88,4.18,11.88,12.9H92.4c.12,2.73,2.64,4.74,6.7,4.74a9.28,9.28,0,0,0,6.07-2.61ZM92.52,48.94h11c-.43-2.82-3.29-3.88-5.42-3.88A5.43,5.43,0,0,0,92.52,48.94Zm13.2-18.71L99.4,37.62H94.79L99,30.23Z" transform="translate(-33.55 -25.77)"/><path class="cls-1" d="M133.74,50.52V62.27h-6.32V50.48c0-3-.86-5.34-3.68-5.34s-3.63,2.43-3.63,5.38V62.27h-6.36V40.36h6.36v3A6.92,6.92,0,0,1,126,39.89c3.34,0,5.6,1.45,6.71,3.67,1.67-3.2,4.83-3.67,6.92-3.67,6.15,0,7.81,4.91,7.81,10.46V62.27H141V50.48c0-3-.85-5.34-3.67-5.34S133.74,47.57,133.74,50.52Z" transform="translate(-33.55 -25.77)"/><path class="cls-1" d="M174,58.42a13.74,13.74,0,0,1-10.21,4.32c-8.11,0-12.55-5.08-12.55-11.32,0-6.45,5-11.53,12.08-11.53,6.07,0,11.88,4.18,11.88,12.9H157.57c.13,2.73,2.65,4.74,6.7,4.74a9.28,9.28,0,0,0,6.07-2.61ZM157.7,48.94h11c-.42-2.82-3.29-3.88-5.42-3.88A5.42,5.42,0,0,0,157.7,48.94Z" transform="translate(-33.55 -25.77)"/><path class="cls-1" d="M178.92,40.36h6.37v3a7.76,7.76,0,0,1,6.79-3.46c6.15,0,7.81,4.91,7.81,10.46V62.27h-6.36V50.48c0-3-1.11-5.34-4.06-5.34s-4.18,2.35-4.18,5.38V62.27h-6.37Z" transform="translate(-33.55 -25.77)"/><path class="cls-1" d="M213,40.36H219v5H213V55.6c0,.94.38,1.93,1.62,1.93s1.67-1,1.67-2.05a6.83,6.83,0,0,0-.3-1.88h5a6.47,6.47,0,0,1,.51,2.6c0,3.25-2.13,6.54-7.3,6.54-3.85,0-7.61-1.37-7.61-7.73V45.35h-3.28v-5h3.76l1-5.38H213Z" transform="translate(-33.55 -25.77)"/><path class="cls-1" d="M257.38,25.77a21.92,21.92,0,0,0-20,30.82,15.94,15.94,0,0,0,22,6.22c.33-.19.66-.39,1-.61a5.46,5.46,0,0,1-2.92.85,5.54,5.54,0,0,1-1.78-.3,5.47,5.47,0,1,1,6.4-8.09,5.39,5.39,0,0,1,.32.58,9.41,9.41,0,0,1,1,4.23s0,.07,0,.11a9.73,9.73,0,0,1-.31,2.42,9.57,9.57,0,0,1-.74,1.91,9.89,9.89,0,0,1-.74,1.22,9.54,9.54,0,0,1-7.6,4h-.14a9.33,9.33,0,0,1-1.84-.18,21.67,21.67,0,0,0,5.38.67,21.91,21.91,0,1,0,0-43.82Zm12,31.55a11.83,11.83,0,0,0-2.22-6.69,12,12,0,0,0-21.4,3.91,12.1,12.1,0,0,0-.38,2.78q-.3-.36-.57-.75a15.4,15.4,0,1,1,24.57.75Z" transform="translate(-33.55 -25.77)"/></svg>