<svg id="Layer_1" data-name="Layer 1" xmlns="http://www.w3.org/2000/svg" viewBox="0 0 153.46 188.18"><defs><style>.cls-1{fill:#fff;}</style></defs><path class="cls-1" d="M106,196.75v17.07h-5v-2.5a6.09,6.09,0,0,1-5.35,2.86c-5.19,0-8.32-4-8.32-9,0-4.79,2.89-8.82,8.22-8.82a6.84,6.84,0,0,1,5.45,2.7v-2.33Zm-9.28,13.41a4.28,4.28,0,0,0,4.46-4.66c0-3.16-1.9-5.09-4.59-5.09s-4.26,2.2-4.26,4.83S94,210.16,96.75,210.16Z" transform="translate(-86.54 -26)"/><path class="cls-1" d="M120.6,213.82h-4.92l-7.15-17.07H114l4.16,11.51,4.19-11.51h5.42Z" transform="translate(-86.54 -26)"/><path class="cls-1" d="M146.05,210.82a10.65,10.65,0,0,1-8,3.36c-6.32,0-9.78-4-9.78-8.81,0-5,3.93-9,9.42-9,4.72,0,9.25,3.26,9.25,10.05H133.24c.1,2.13,2.07,3.7,5.23,3.7a7.2,7.2,0,0,0,4.72-2Zm-12.71-7.38h8.56c-.34-2.2-2.57-3-4.23-3A4.23,4.23,0,0,0,133.34,203.44Zm10.29-14.57-4.93,5.75h-3.59l3.29-5.75Z" transform="translate(-86.54 -26)"/><path class="cls-1" d="M165.45,204.67v9.15h-4.92v-9.18c0-2.33-.67-4.16-2.87-4.16s-2.82,1.89-2.82,4.19v9.15h-5V196.75h5v2.33a5.37,5.37,0,0,1,4.55-2.7,5.46,5.46,0,0,1,5.23,2.87,5.65,5.65,0,0,1,5.39-2.87c4.79,0,6.09,3.83,6.09,8.16v9.28h-5v-9.18c0-2.33-.67-4.16-2.86-4.16S165.45,202.37,165.45,204.67Z" transform="translate(-86.54 -26)"/><path class="cls-1" d="M196.82,210.82a10.66,10.66,0,0,1-7.95,3.36c-6.32,0-9.78-4-9.78-8.81,0-5,3.93-9,9.42-9,4.72,0,9.25,3.26,9.25,10.05H184c.1,2.13,2.07,3.7,5.23,3.7a7.22,7.22,0,0,0,4.72-2Zm-12.71-7.38h8.55c-.33-2.2-2.56-3-4.22-3A4.23,4.23,0,0,0,184.11,203.44Z" transform="translate(-86.54 -26)"/><path class="cls-1" d="M200.65,196.75h5v2.33a6.05,6.05,0,0,1,5.29-2.7c4.79,0,6.08,3.83,6.08,8.16v9.28H212v-9.18c0-2.37-.87-4.16-3.16-4.16s-3.26,1.83-3.26,4.19v9.15h-5Z" transform="translate(-86.54 -26)"/><path class="cls-1" d="M227.16,196.75h4.73v3.89h-4.73v8c0,.73.3,1.5,1.27,1.5s1.3-.8,1.3-1.6a5.41,5.41,0,0,0-.24-1.47h3.93a5.06,5.06,0,0,1,.4,2c0,2.53-1.67,5.09-5.69,5.09-3,0-5.92-1.06-5.92-6v-7.52h-2.56v-3.89h2.92l.77-4.19h3.82Z" transform="translate(-86.54 -26)"/><path class="cls-1" d="M163.27,26A76.77,76.77,0,0,0,93.16,134c14.37,27.38,50.29,37.63,76.9,21.78,1.17-.68,2.33-1.39,3.45-2.16a19.14,19.14,0,1,1,5.93-26.41,17.76,17.76,0,0,1,1.13,2A33.1,33.1,0,0,1,184.23,144c0,.12,0,.24,0,.37a33.35,33.35,0,0,1-32.86,33.34h-.5a34.21,34.21,0,0,1-6.44-.62A76.74,76.74,0,1,0,163.27,26Zm42,110.51a42,42,0,0,0-84.06,0c-.7-.86-1.36-1.74-2-2.64a53.92,53.92,0,1,1,86.06,2.64Z" transform="translate(-86.54 -26)"/></svg>