<svg xmlns="http://www.w3.org/2000/svg" viewBox="0 0 141.7 141.7"><title>Zeichenfläche 2</title><path d="M71.3,19.8A51.1,51.1,0,0,0,20.2,70.9a50.1,50.1,0,0,0,4.4,20.8c9.6,18.3,33.5,25.1,51.2,14.5l2.3-1.4a13.2,13.2,0,0,1-6.8,2,14.2,14.2,0,0,1-4.2-.7,12.7,12.7,0,0,1,4.2-24.8A12.5,12.5,0,0,1,82,87.2a6.4,6.4,0,0,1,.8,1.4,21.5,21.5,0,0,1,2.4,9.8v.3a21,21,0,0,1-.7,5.6,22,22,0,0,1-1.7,4.5,26.1,26.1,0,0,1-1.7,2.8,22.2,22.2,0,0,1-17.7,9.3H63a31.3,31.3,0,0,1-4.3-.4A51.8,51.8,0,0,0,71.3,122a51.1,51.1,0,0,0,0-102.2Zm28,73.6a28.8,28.8,0,0,0-5.2-15.6,28,28,0,0,0-49.9,9.1,23.7,23.7,0,0,0-.9,6.5A10.9,10.9,0,0,1,42,91.7,36,36,0,0,1,71.3,35a35.9,35.9,0,0,1,28,58.4Z" style="fill:#fff"/></svg>